<svg width="131" height="135" viewBox="0 0 131 135" fill="none" xmlns="http://www.w3.org/2000/svg">
<g opacity="0.26">
<mask id="mask0_298_571" style="mask-type:alpha" maskUnits="userSpaceOnUse" x="0" y="0" width="11" height="13">
<path d="M5.32919 12.2317C8.20117 12.2317 10.5294 9.49347 10.5294 6.1158C10.5294 2.73813 8.20117 0 5.32919 0C2.45722 0 0.129028 2.73813 0.129028 6.1158C0.129028 9.49347 2.45722 12.2317 5.32919 12.2317Z" fill="url(#paint0_linear_298_571)"/>
</mask>
<g mask="url(#mask0_298_571)">
<path d="M5.32919 12.2317C8.20117 12.2317 10.5294 9.49347 10.5294 6.1158C10.5294 2.73813 8.20117 0 5.32919 0C2.45722 0 0.129028 2.73813 0.129028 6.1158C0.129028 9.49347 2.45722 12.2317 5.32919 12.2317Z" fill="url(#paint1_linear_298_571)"/>
</g>
<mask id="mask1_298_571" style="mask-type:alpha" maskUnits="userSpaceOnUse" x="30" y="0" width="11" height="13">
<path d="M35.4468 12.2317C38.3187 12.2317 40.6469 9.49347 40.6469 6.1158C40.6469 2.73813 38.3187 0 35.4468 0C32.5748 0 30.2466 2.73813 30.2466 6.1158C30.2466 9.49347 32.5748 12.2317 35.4468 12.2317Z" fill="url(#paint2_linear_298_571)"/>
</mask>
<g mask="url(#mask1_298_571)">
<path d="M35.4468 12.2317C38.3187 12.2317 40.6469 9.49347 40.6469 6.1158C40.6469 2.73813 38.3187 0 35.4468 0C32.5748 0 30.2466 2.73813 30.2466 6.1158C30.2466 9.49347 32.5748 12.2317 35.4468 12.2317Z" fill="url(#paint3_linear_298_571)"/>
</g>
<mask id="mask2_298_571" style="mask-type:alpha" maskUnits="userSpaceOnUse" x="60" y="0" width="11" height="13">
<path d="M65.5644 12.2317C68.4364 12.2317 70.7646 9.49347 70.7646 6.1158C70.7646 2.73813 68.4364 0 65.5644 0C62.6925 0 60.3643 2.73813 60.3643 6.1158C60.3643 9.49347 62.6925 12.2317 65.5644 12.2317Z" fill="url(#paint4_linear_298_571)"/>
</mask>
<g mask="url(#mask2_298_571)">
<path d="M65.5644 12.2317C68.4364 12.2317 70.7646 9.49347 70.7646 6.1158C70.7646 2.73813 68.4364 0 65.5644 0C62.6925 0 60.3643 2.73813 60.3643 6.1158C60.3643 9.49347 62.6925 12.2317 65.5644 12.2317Z" fill="url(#paint5_linear_298_571)"/>
</g>
<mask id="mask3_298_571" style="mask-type:alpha" maskUnits="userSpaceOnUse" x="90" y="0" width="11" height="13">
<path d="M95.6821 12.2317C98.5541 12.2317 100.882 9.49347 100.882 6.1158C100.882 2.73813 98.5541 0 95.6821 0C92.8101 0 90.4819 2.73813 90.4819 6.1158C90.4819 9.49347 92.8101 12.2317 95.6821 12.2317Z" fill="url(#paint6_linear_298_571)"/>
</mask>
<g mask="url(#mask3_298_571)">
<path d="M95.6821 12.2317C98.5541 12.2317 100.882 9.49347 100.882 6.1158C100.882 2.73813 98.5541 0 95.6821 0C92.8101 0 90.4819 2.73813 90.4819 6.1158C90.4819 9.49347 92.8101 12.2317 95.6821 12.2317Z" fill="url(#paint7_linear_298_571)"/>
</g>
<mask id="mask4_298_571" style="mask-type:alpha" maskUnits="userSpaceOnUse" x="120" y="0" width="11" height="13">
<path d="M125.8 12.2317C128.672 12.2317 131 9.49347 131 6.1158C131 2.73813 128.672 0 125.8 0C122.928 0 120.6 2.73813 120.6 6.1158C120.6 9.49347 122.928 12.2317 125.8 12.2317Z" fill="url(#paint8_linear_298_571)"/>
</mask>
<g mask="url(#mask4_298_571)">
<path d="M125.8 12.2317C128.672 12.2317 131 9.49347 131 6.1158C131 2.73813 128.672 0 125.8 0C122.928 0 120.6 2.73813 120.6 6.1158C120.6 9.49347 122.928 12.2317 125.8 12.2317Z" fill="url(#paint9_linear_298_571)"/>
</g>
<mask id="mask5_298_571" style="mask-type:alpha" maskUnits="userSpaceOnUse" x="0" y="30" width="11" height="13">
<path d="M5.32919 42.9381C8.20117 42.9381 10.5294 40.2 10.5294 36.8223C10.5294 33.4447 8.20117 30.7065 5.32919 30.7065C2.45722 30.7065 0.129028 33.4447 0.129028 36.8223C0.129028 40.2 2.45722 42.9381 5.32919 42.9381Z" fill="url(#paint10_linear_298_571)"/>
</mask>
<g mask="url(#mask5_298_571)">
<path d="M5.32919 42.9381C8.20117 42.9381 10.5294 40.2 10.5294 36.8223C10.5294 33.4447 8.20117 30.7065 5.32919 30.7065C2.45722 30.7065 0.129028 33.4447 0.129028 36.8223C0.129028 40.2 2.45722 42.9381 5.32919 42.9381Z" fill="url(#paint11_linear_298_571)"/>
</g>
<mask id="mask6_298_571" style="mask-type:alpha" maskUnits="userSpaceOnUse" x="30" y="30" width="11" height="13">
<path d="M35.4468 42.9381C38.3187 42.9381 40.6469 40.2 40.6469 36.8223C40.6469 33.4447 38.3187 30.7065 35.4468 30.7065C32.5748 30.7065 30.2466 33.4447 30.2466 36.8223C30.2466 40.2 32.5748 42.9381 35.4468 42.9381Z" fill="url(#paint12_linear_298_571)"/>
</mask>
<g mask="url(#mask6_298_571)">
<path d="M35.4468 42.9381C38.3187 42.9381 40.6469 40.2 40.6469 36.8223C40.6469 33.4447 38.3187 30.7065 35.4468 30.7065C32.5748 30.7065 30.2466 33.4447 30.2466 36.8223C30.2466 40.2 32.5748 42.9381 35.4468 42.9381Z" fill="url(#paint13_linear_298_571)"/>
</g>
<mask id="mask7_298_571" style="mask-type:alpha" maskUnits="userSpaceOnUse" x="60" y="30" width="11" height="13">
<path d="M65.5644 42.9381C68.4364 42.9381 70.7646 40.2 70.7646 36.8223C70.7646 33.4447 68.4364 30.7065 65.5644 30.7065C62.6925 30.7065 60.3643 33.4447 60.3643 36.8223C60.3643 40.2 62.6925 42.9381 65.5644 42.9381Z" fill="url(#paint14_linear_298_571)"/>
</mask>
<g mask="url(#mask7_298_571)">
<path d="M65.5644 42.9381C68.4364 42.9381 70.7646 40.2 70.7646 36.8223C70.7646 33.4447 68.4364 30.7065 65.5644 30.7065C62.6925 30.7065 60.3643 33.4447 60.3643 36.8223C60.3643 40.2 62.6925 42.9381 65.5644 42.9381Z" fill="url(#paint15_linear_298_571)"/>
</g>
<mask id="mask8_298_571" style="mask-type:alpha" maskUnits="userSpaceOnUse" x="90" y="30" width="11" height="13">
<path d="M95.6821 42.9381C98.5541 42.9381 100.882 40.2 100.882 36.8223C100.882 33.4447 98.5541 30.7065 95.6821 30.7065C92.8101 30.7065 90.4819 33.4447 90.4819 36.8223C90.4819 40.2 92.8101 42.9381 95.6821 42.9381Z" fill="url(#paint16_linear_298_571)"/>
</mask>
<g mask="url(#mask8_298_571)">
<path d="M95.6821 42.9381C98.5541 42.9381 100.882 40.2 100.882 36.8223C100.882 33.4447 98.5541 30.7065 95.6821 30.7065C92.8101 30.7065 90.4819 33.4447 90.4819 36.8223C90.4819 40.2 92.8101 42.9381 95.6821 42.9381Z" fill="url(#paint17_linear_298_571)"/>
</g>
<mask id="mask9_298_571" style="mask-type:alpha" maskUnits="userSpaceOnUse" x="120" y="30" width="11" height="13">
<path d="M125.8 42.9381C128.672 42.9381 131 40.2 131 36.8223C131 33.4447 128.672 30.7065 125.8 30.7065C122.928 30.7065 120.6 33.4447 120.6 36.8223C120.6 40.2 122.928 42.9381 125.8 42.9381Z" fill="url(#paint18_linear_298_571)"/>
</mask>
<g mask="url(#mask9_298_571)">
<path d="M125.8 42.9381C128.672 42.9381 131 40.2 131 36.8223C131 33.4447 128.672 30.7065 125.8 30.7065C122.928 30.7065 120.6 33.4447 120.6 36.8223C120.6 40.2 122.928 42.9381 125.8 42.9381Z" fill="url(#paint19_linear_298_571)"/>
</g>
<mask id="mask10_298_571" style="mask-type:alpha" maskUnits="userSpaceOnUse" x="0" y="61" width="11" height="13">
<path d="M5.32919 73.581C8.20117 73.581 10.5294 70.8429 10.5294 67.4652C10.5294 64.0875 8.20117 61.3494 5.32919 61.3494C2.45722 61.3494 0.129028 64.0875 0.129028 67.4652C0.129028 70.8429 2.45722 73.581 5.32919 73.581Z" fill="url(#paint20_linear_298_571)"/>
</mask>
<g mask="url(#mask10_298_571)">
<path d="M5.32919 73.581C8.20117 73.581 10.5294 70.8429 10.5294 67.4652C10.5294 64.0875 8.20117 61.3494 5.32919 61.3494C2.45722 61.3494 0.129028 64.0875 0.129028 67.4652C0.129028 70.8429 2.45722 73.581 5.32919 73.581Z" fill="url(#paint21_linear_298_571)"/>
</g>
<mask id="mask11_298_571" style="mask-type:alpha" maskUnits="userSpaceOnUse" x="30" y="61" width="11" height="13">
<path d="M35.4468 73.581C38.3187 73.581 40.6469 70.8429 40.6469 67.4652C40.6469 64.0875 38.3187 61.3494 35.4468 61.3494C32.5748 61.3494 30.2466 64.0875 30.2466 67.4652C30.2466 70.8429 32.5748 73.581 35.4468 73.581Z" fill="url(#paint22_linear_298_571)"/>
</mask>
<g mask="url(#mask11_298_571)">
<path d="M35.4468 73.581C38.3187 73.581 40.6469 70.8429 40.6469 67.4652C40.6469 64.0875 38.3187 61.3494 35.4468 61.3494C32.5748 61.3494 30.2466 64.0875 30.2466 67.4652C30.2466 70.8429 32.5748 73.581 35.4468 73.581Z" fill="url(#paint23_linear_298_571)"/>
</g>
<mask id="mask12_298_571" style="mask-type:alpha" maskUnits="userSpaceOnUse" x="60" y="61" width="11" height="13">
<path d="M65.5644 73.581C68.4364 73.581 70.7646 70.8429 70.7646 67.4652C70.7646 64.0875 68.4364 61.3494 65.5644 61.3494C62.6925 61.3494 60.3643 64.0875 60.3643 67.4652C60.3643 70.8429 62.6925 73.581 65.5644 73.581Z" fill="url(#paint24_linear_298_571)"/>
</mask>
<g mask="url(#mask12_298_571)">
<path d="M65.5644 73.581C68.4364 73.581 70.7646 70.8429 70.7646 67.4652C70.7646 64.0875 68.4364 61.3494 65.5644 61.3494C62.6925 61.3494 60.3643 64.0875 60.3643 67.4652C60.3643 70.8429 62.6925 73.581 65.5644 73.581Z" fill="url(#paint25_linear_298_571)"/>
</g>
<mask id="mask13_298_571" style="mask-type:alpha" maskUnits="userSpaceOnUse" x="90" y="61" width="11" height="13">
<path d="M95.6821 73.581C98.5541 73.581 100.882 70.8429 100.882 67.4652C100.882 64.0875 98.5541 61.3494 95.6821 61.3494C92.8101 61.3494 90.4819 64.0875 90.4819 67.4652C90.4819 70.8429 92.8101 73.581 95.6821 73.581Z" fill="url(#paint26_linear_298_571)"/>
</mask>
<g mask="url(#mask13_298_571)">
<path d="M95.6821 73.581C98.5541 73.581 100.882 70.8429 100.882 67.4652C100.882 64.0875 98.5541 61.3494 95.6821 61.3494C92.8101 61.3494 90.4819 64.0875 90.4819 67.4652C90.4819 70.8429 92.8101 73.581 95.6821 73.581Z" fill="url(#paint27_linear_298_571)"/>
</g>
<mask id="mask14_298_571" style="mask-type:alpha" maskUnits="userSpaceOnUse" x="120" y="61" width="11" height="13">
<path d="M125.8 73.581C128.672 73.581 131 70.8429 131 67.4652C131 64.0875 128.672 61.3494 125.8 61.3494C122.928 61.3494 120.6 64.0875 120.6 67.4652C120.6 70.8429 122.928 73.581 125.8 73.581Z" fill="url(#paint28_linear_298_571)"/>
</mask>
<g mask="url(#mask14_298_571)">
<path d="M125.8 73.581C128.672 73.581 131 70.8429 131 67.4652C131 64.0875 128.672 61.3494 125.8 61.3494C122.928 61.3494 120.6 64.0875 120.6 67.4652C120.6 70.8429 122.928 73.581 125.8 73.581Z" fill="url(#paint29_linear_298_571)"/>
</g>
<mask id="mask15_298_571" style="mask-type:alpha" maskUnits="userSpaceOnUse" x="0" y="92" width="11" height="13">
<path d="M5.32919 104.287C8.20117 104.287 10.5294 101.549 10.5294 98.1716C10.5294 94.7939 8.20117 92.0558 5.32919 92.0558C2.45722 92.0558 0.129028 94.7939 0.129028 98.1716C0.129028 101.549 2.45722 104.287 5.32919 104.287Z" fill="url(#paint30_linear_298_571)"/>
</mask>
<g mask="url(#mask15_298_571)">
<path d="M5.32919 104.287C8.20117 104.287 10.5294 101.549 10.5294 98.1716C10.5294 94.7939 8.20117 92.0558 5.32919 92.0558C2.45722 92.0558 0.129028 94.7939 0.129028 98.1716C0.129028 101.549 2.45722 104.287 5.32919 104.287Z" fill="url(#paint31_linear_298_571)"/>
</g>
<mask id="mask16_298_571" style="mask-type:alpha" maskUnits="userSpaceOnUse" x="30" y="92" width="11" height="13">
<path d="M35.4468 104.287C38.3187 104.287 40.6469 101.549 40.6469 98.1716C40.6469 94.7939 38.3187 92.0558 35.4468 92.0558C32.5748 92.0558 30.2466 94.7939 30.2466 98.1716C30.2466 101.549 32.5748 104.287 35.4468 104.287Z" fill="url(#paint32_linear_298_571)"/>
</mask>
<g mask="url(#mask16_298_571)">
<path d="M35.4468 104.287C38.3187 104.287 40.6469 101.549 40.6469 98.1716C40.6469 94.7939 38.3187 92.0558 35.4468 92.0558C32.5748 92.0558 30.2466 94.7939 30.2466 98.1716C30.2466 101.549 32.5748 104.287 35.4468 104.287Z" fill="url(#paint33_linear_298_571)"/>
</g>
<mask id="mask17_298_571" style="mask-type:alpha" maskUnits="userSpaceOnUse" x="60" y="92" width="11" height="13">
<path d="M65.5644 104.287C68.4364 104.287 70.7646 101.549 70.7646 98.1716C70.7646 94.7939 68.4364 92.0558 65.5644 92.0558C62.6925 92.0558 60.3643 94.7939 60.3643 98.1716C60.3643 101.549 62.6925 104.287 65.5644 104.287Z" fill="url(#paint34_linear_298_571)"/>
</mask>
<g mask="url(#mask17_298_571)">
<path d="M65.5644 104.287C68.4364 104.287 70.7646 101.549 70.7646 98.1716C70.7646 94.7939 68.4364 92.0558 65.5644 92.0558C62.6925 92.0558 60.3643 94.7939 60.3643 98.1716C60.3643 101.549 62.6925 104.287 65.5644 104.287Z" fill="url(#paint35_linear_298_571)"/>
</g>
<mask id="mask18_298_571" style="mask-type:alpha" maskUnits="userSpaceOnUse" x="90" y="92" width="11" height="13">
<path d="M95.6821 104.287C98.5541 104.287 100.882 101.549 100.882 98.1716C100.882 94.7939 98.5541 92.0558 95.6821 92.0558C92.8101 92.0558 90.4819 94.7939 90.4819 98.1716C90.4819 101.549 92.8101 104.287 95.6821 104.287Z" fill="url(#paint36_linear_298_571)"/>
</mask>
<g mask="url(#mask18_298_571)">
<path d="M95.6821 104.287C98.5541 104.287 100.882 101.549 100.882 98.1716C100.882 94.7939 98.5541 92.0558 95.6821 92.0558C92.8101 92.0558 90.4819 94.7939 90.4819 98.1716C90.4819 101.549 92.8101 104.287 95.6821 104.287Z" fill="url(#paint37_linear_298_571)"/>
</g>
<mask id="mask19_298_571" style="mask-type:alpha" maskUnits="userSpaceOnUse" x="120" y="92" width="11" height="13">
<path d="M125.8 104.287C128.672 104.287 131 101.549 131 98.1716C131 94.7939 128.672 92.0558 125.8 92.0558C122.928 92.0558 120.6 94.7939 120.6 98.1716C120.6 101.549 122.928 104.287 125.8 104.287Z" fill="url(#paint38_linear_298_571)"/>
</mask>
<g mask="url(#mask19_298_571)">
<path d="M125.8 104.287C128.672 104.287 131 101.549 131 98.1716C131 94.7939 128.672 92.0558 125.8 92.0558C122.928 92.0558 120.6 94.7939 120.6 98.1716C120.6 101.549 122.928 104.287 125.8 104.287Z" fill="url(#paint39_linear_298_571)"/>
</g>
<mask id="mask20_298_571" style="mask-type:alpha" maskUnits="userSpaceOnUse" x="0" y="122" width="11" height="13">
<path d="M5.32919 134.93C8.20117 134.93 10.5294 132.192 10.5294 128.814C10.5294 125.437 8.20117 122.699 5.32919 122.699C2.45722 122.699 0.129028 125.437 0.129028 128.814C0.129028 132.192 2.45722 134.93 5.32919 134.93Z" fill="url(#paint40_linear_298_571)"/>
</mask>
<g mask="url(#mask20_298_571)">
<path d="M5.32919 134.93C8.20117 134.93 10.5294 132.192 10.5294 128.814C10.5294 125.437 8.20117 122.699 5.32919 122.699C2.45722 122.699 0.129028 125.437 0.129028 128.814C0.129028 132.192 2.45722 134.93 5.32919 134.93Z" fill="url(#paint41_linear_298_571)"/>
</g>
<mask id="mask21_298_571" style="mask-type:alpha" maskUnits="userSpaceOnUse" x="30" y="122" width="11" height="13">
<path d="M35.4468 134.93C38.3187 134.93 40.6469 132.192 40.6469 128.814C40.6469 125.437 38.3187 122.699 35.4468 122.699C32.5748 122.699 30.2466 125.437 30.2466 128.814C30.2466 132.192 32.5748 134.93 35.4468 134.93Z" fill="url(#paint42_linear_298_571)"/>
</mask>
<g mask="url(#mask21_298_571)">
<path d="M35.4468 134.93C38.3187 134.93 40.6469 132.192 40.6469 128.814C40.6469 125.437 38.3187 122.699 35.4468 122.699C32.5748 122.699 30.2466 125.437 30.2466 128.814C30.2466 132.192 32.5748 134.93 35.4468 134.93Z" fill="url(#paint43_linear_298_571)"/>
</g>
<mask id="mask22_298_571" style="mask-type:alpha" maskUnits="userSpaceOnUse" x="60" y="122" width="11" height="13">
<path d="M65.5644 134.93C68.4364 134.93 70.7646 132.192 70.7646 128.814C70.7646 125.437 68.4364 122.699 65.5644 122.699C62.6925 122.699 60.3643 125.437 60.3643 128.814C60.3643 132.192 62.6925 134.93 65.5644 134.93Z" fill="url(#paint44_linear_298_571)"/>
</mask>
<g mask="url(#mask22_298_571)">
<path d="M65.5644 134.93C68.4364 134.93 70.7646 132.192 70.7646 128.814C70.7646 125.437 68.4364 122.699 65.5644 122.699C62.6925 122.699 60.3643 125.437 60.3643 128.814C60.3643 132.192 62.6925 134.93 65.5644 134.93Z" fill="url(#paint45_linear_298_571)"/>
</g>
<mask id="mask23_298_571" style="mask-type:alpha" maskUnits="userSpaceOnUse" x="90" y="122" width="11" height="13">
<path d="M95.6821 134.93C98.5541 134.93 100.882 132.192 100.882 128.814C100.882 125.437 98.5541 122.699 95.6821 122.699C92.8101 122.699 90.4819 125.437 90.4819 128.814C90.4819 132.192 92.8101 134.93 95.6821 134.93Z" fill="url(#paint46_linear_298_571)"/>
</mask>
<g mask="url(#mask23_298_571)">
<path d="M95.6821 134.93C98.5541 134.93 100.882 132.192 100.882 128.814C100.882 125.437 98.5541 122.699 95.6821 122.699C92.8101 122.699 90.4819 125.437 90.4819 128.814C90.4819 132.192 92.8101 134.93 95.6821 134.93Z" fill="url(#paint47_linear_298_571)"/>
</g>
<mask id="mask24_298_571" style="mask-type:alpha" maskUnits="userSpaceOnUse" x="120" y="122" width="11" height="13">
<path d="M125.8 134.93C128.672 134.93 131 132.192 131 128.814C131 125.437 128.672 122.699 125.8 122.699C122.928 122.699 120.6 125.437 120.6 128.814C120.6 132.192 122.928 134.93 125.8 134.93Z" fill="url(#paint48_linear_298_571)"/>
</mask>
<g mask="url(#mask24_298_571)">
<path d="M125.8 134.93C128.672 134.93 131 132.192 131 128.814C131 125.437 128.672 122.699 125.8 122.699C122.928 122.699 120.6 125.437 120.6 128.814C120.6 132.192 122.928 134.93 125.8 134.93Z" fill="url(#paint49_linear_298_571)"/>
</g>
</g>
<defs>
<linearGradient id="paint0_linear_298_571" x1="54.8283" y1="153.86" x2="-39.0852" y2="-48.8431" gradientUnits="userSpaceOnUse">
<stop stop-color="white"/>
<stop offset="1" stop-color="white"/>
</linearGradient>
<linearGradient id="paint1_linear_298_571" x1="54.8283" y1="153.86" x2="-39.0852" y2="-48.8431" gradientUnits="userSpaceOnUse">
<stop stop-color="white"/>
<stop offset="1" stop-color="white"/>
</linearGradient>
<linearGradient id="paint2_linear_298_571" x1="84.9459" y1="153.86" x2="-8.9675" y2="-48.8432" gradientUnits="userSpaceOnUse">
<stop stop-color="white"/>
<stop offset="1" stop-color="white"/>
</linearGradient>
<linearGradient id="paint3_linear_298_571" x1="84.9459" y1="153.86" x2="-8.9675" y2="-48.8432" gradientUnits="userSpaceOnUse">
<stop stop-color="white"/>
<stop offset="1" stop-color="white"/>
</linearGradient>
<linearGradient id="paint4_linear_298_571" x1="115.064" y1="153.86" x2="21.1502" y2="-48.8432" gradientUnits="userSpaceOnUse">
<stop stop-color="white"/>
<stop offset="1" stop-color="white"/>
</linearGradient>
<linearGradient id="paint5_linear_298_571" x1="115.064" y1="153.86" x2="21.1502" y2="-48.8432" gradientUnits="userSpaceOnUse">
<stop stop-color="white"/>
<stop offset="1" stop-color="white"/>
</linearGradient>
<linearGradient id="paint6_linear_298_571" x1="145.181" y1="153.86" x2="51.2679" y2="-48.8432" gradientUnits="userSpaceOnUse">
<stop stop-color="white"/>
<stop offset="1" stop-color="white"/>
</linearGradient>
<linearGradient id="paint7_linear_298_571" x1="145.181" y1="153.86" x2="51.2679" y2="-48.8432" gradientUnits="userSpaceOnUse">
<stop stop-color="white"/>
<stop offset="1" stop-color="white"/>
</linearGradient>
<linearGradient id="paint8_linear_298_571" x1="175.299" y1="153.86" x2="81.3855" y2="-48.8432" gradientUnits="userSpaceOnUse">
<stop stop-color="white"/>
<stop offset="1" stop-color="white"/>
</linearGradient>
<linearGradient id="paint9_linear_298_571" x1="175.299" y1="153.86" x2="81.3855" y2="-48.8432" gradientUnits="userSpaceOnUse">
<stop stop-color="white"/>
<stop offset="1" stop-color="white"/>
</linearGradient>
<linearGradient id="paint10_linear_298_571" x1="54.8283" y1="184.565" x2="-39.0837" y2="-18.1368" gradientUnits="userSpaceOnUse">
<stop stop-color="white"/>
<stop offset="1" stop-color="white"/>
</linearGradient>
<linearGradient id="paint11_linear_298_571" x1="54.8283" y1="184.565" x2="-39.0837" y2="-18.1368" gradientUnits="userSpaceOnUse">
<stop stop-color="white"/>
<stop offset="1" stop-color="white"/>
</linearGradient>
<linearGradient id="paint12_linear_298_571" x1="84.9459" y1="184.565" x2="-8.96596" y2="-18.1369" gradientUnits="userSpaceOnUse">
<stop stop-color="white"/>
<stop offset="1" stop-color="white"/>
</linearGradient>
<linearGradient id="paint13_linear_298_571" x1="84.9459" y1="184.565" x2="-8.96596" y2="-18.1369" gradientUnits="userSpaceOnUse">
<stop stop-color="white"/>
<stop offset="1" stop-color="white"/>
</linearGradient>
<linearGradient id="paint14_linear_298_571" x1="115.064" y1="184.565" x2="21.1517" y2="-18.1369" gradientUnits="userSpaceOnUse">
<stop stop-color="white"/>
<stop offset="1" stop-color="white"/>
</linearGradient>
<linearGradient id="paint15_linear_298_571" x1="115.064" y1="184.565" x2="21.1517" y2="-18.1369" gradientUnits="userSpaceOnUse">
<stop stop-color="white"/>
<stop offset="1" stop-color="white"/>
</linearGradient>
<linearGradient id="paint16_linear_298_571" x1="145.181" y1="184.565" x2="51.2694" y2="-18.1369" gradientUnits="userSpaceOnUse">
<stop stop-color="white"/>
<stop offset="1" stop-color="white"/>
</linearGradient>
<linearGradient id="paint17_linear_298_571" x1="145.181" y1="184.565" x2="51.2694" y2="-18.1369" gradientUnits="userSpaceOnUse">
<stop stop-color="white"/>
<stop offset="1" stop-color="white"/>
</linearGradient>
<linearGradient id="paint18_linear_298_571" x1="175.299" y1="184.565" x2="81.3871" y2="-18.1369" gradientUnits="userSpaceOnUse">
<stop stop-color="white"/>
<stop offset="1" stop-color="white"/>
</linearGradient>
<linearGradient id="paint19_linear_298_571" x1="175.299" y1="184.565" x2="81.3871" y2="-18.1369" gradientUnits="userSpaceOnUse">
<stop stop-color="white"/>
<stop offset="1" stop-color="white"/>
</linearGradient>
<linearGradient id="paint20_linear_298_571" x1="54.8283" y1="215.21" x2="-39.0852" y2="12.5062" gradientUnits="userSpaceOnUse">
<stop stop-color="white"/>
<stop offset="1" stop-color="white"/>
</linearGradient>
<linearGradient id="paint21_linear_298_571" x1="54.8283" y1="215.21" x2="-39.0852" y2="12.5062" gradientUnits="userSpaceOnUse">
<stop stop-color="white"/>
<stop offset="1" stop-color="white"/>
</linearGradient>
<linearGradient id="paint22_linear_298_571" x1="84.9459" y1="215.21" x2="-8.9675" y2="12.5062" gradientUnits="userSpaceOnUse">
<stop stop-color="white"/>
<stop offset="1" stop-color="white"/>
</linearGradient>
<linearGradient id="paint23_linear_298_571" x1="84.9459" y1="215.21" x2="-8.9675" y2="12.5062" gradientUnits="userSpaceOnUse">
<stop stop-color="white"/>
<stop offset="1" stop-color="white"/>
</linearGradient>
<linearGradient id="paint24_linear_298_571" x1="115.064" y1="215.21" x2="21.1502" y2="12.5062" gradientUnits="userSpaceOnUse">
<stop stop-color="white"/>
<stop offset="1" stop-color="white"/>
</linearGradient>
<linearGradient id="paint25_linear_298_571" x1="115.064" y1="215.21" x2="21.1502" y2="12.5062" gradientUnits="userSpaceOnUse">
<stop stop-color="white"/>
<stop offset="1" stop-color="white"/>
</linearGradient>
<linearGradient id="paint26_linear_298_571" x1="145.181" y1="215.21" x2="51.2679" y2="12.5062" gradientUnits="userSpaceOnUse">
<stop stop-color="white"/>
<stop offset="1" stop-color="white"/>
</linearGradient>
<linearGradient id="paint27_linear_298_571" x1="145.181" y1="215.21" x2="51.2679" y2="12.5062" gradientUnits="userSpaceOnUse">
<stop stop-color="white"/>
<stop offset="1" stop-color="white"/>
</linearGradient>
<linearGradient id="paint28_linear_298_571" x1="175.299" y1="215.21" x2="81.3855" y2="12.5062" gradientUnits="userSpaceOnUse">
<stop stop-color="white"/>
<stop offset="1" stop-color="white"/>
</linearGradient>
<linearGradient id="paint29_linear_298_571" x1="175.299" y1="215.21" x2="81.3855" y2="12.5062" gradientUnits="userSpaceOnUse">
<stop stop-color="white"/>
<stop offset="1" stop-color="white"/>
</linearGradient>
<linearGradient id="paint30_linear_298_571" x1="54.8283" y1="245.916" x2="-39.0852" y2="43.2127" gradientUnits="userSpaceOnUse">
<stop stop-color="white"/>
<stop offset="1" stop-color="white"/>
</linearGradient>
<linearGradient id="paint31_linear_298_571" x1="54.8283" y1="245.916" x2="-39.0852" y2="43.2127" gradientUnits="userSpaceOnUse">
<stop stop-color="white"/>
<stop offset="1" stop-color="white"/>
</linearGradient>
<linearGradient id="paint32_linear_298_571" x1="84.9459" y1="245.916" x2="-8.9675" y2="43.2126" gradientUnits="userSpaceOnUse">
<stop stop-color="white"/>
<stop offset="1" stop-color="white"/>
</linearGradient>
<linearGradient id="paint33_linear_298_571" x1="84.9459" y1="245.916" x2="-8.9675" y2="43.2126" gradientUnits="userSpaceOnUse">
<stop stop-color="white"/>
<stop offset="1" stop-color="white"/>
</linearGradient>
<linearGradient id="paint34_linear_298_571" x1="115.064" y1="245.916" x2="21.1502" y2="43.2126" gradientUnits="userSpaceOnUse">
<stop stop-color="white"/>
<stop offset="1" stop-color="white"/>
</linearGradient>
<linearGradient id="paint35_linear_298_571" x1="115.064" y1="245.916" x2="21.1502" y2="43.2126" gradientUnits="userSpaceOnUse">
<stop stop-color="white"/>
<stop offset="1" stop-color="white"/>
</linearGradient>
<linearGradient id="paint36_linear_298_571" x1="145.181" y1="245.916" x2="51.2679" y2="43.2126" gradientUnits="userSpaceOnUse">
<stop stop-color="white"/>
<stop offset="1" stop-color="white"/>
</linearGradient>
<linearGradient id="paint37_linear_298_571" x1="145.181" y1="245.916" x2="51.2679" y2="43.2126" gradientUnits="userSpaceOnUse">
<stop stop-color="white"/>
<stop offset="1" stop-color="white"/>
</linearGradient>
<linearGradient id="paint38_linear_298_571" x1="175.299" y1="245.916" x2="81.3855" y2="43.2126" gradientUnits="userSpaceOnUse">
<stop stop-color="white"/>
<stop offset="1" stop-color="white"/>
</linearGradient>
<linearGradient id="paint39_linear_298_571" x1="175.299" y1="245.916" x2="81.3855" y2="43.2126" gradientUnits="userSpaceOnUse">
<stop stop-color="white"/>
<stop offset="1" stop-color="white"/>
</linearGradient>
<linearGradient id="paint40_linear_298_571" x1="54.8283" y1="276.559" x2="-39.0852" y2="73.8555" gradientUnits="userSpaceOnUse">
<stop stop-color="white"/>
<stop offset="1" stop-color="white"/>
</linearGradient>
<linearGradient id="paint41_linear_298_571" x1="54.8283" y1="276.559" x2="-39.0852" y2="73.8555" gradientUnits="userSpaceOnUse">
<stop stop-color="white"/>
<stop offset="1" stop-color="white"/>
</linearGradient>
<linearGradient id="paint42_linear_298_571" x1="84.9459" y1="276.559" x2="-8.9675" y2="73.8554" gradientUnits="userSpaceOnUse">
<stop stop-color="white"/>
<stop offset="1" stop-color="white"/>
</linearGradient>
<linearGradient id="paint43_linear_298_571" x1="84.9459" y1="276.559" x2="-8.9675" y2="73.8554" gradientUnits="userSpaceOnUse">
<stop stop-color="white"/>
<stop offset="1" stop-color="white"/>
</linearGradient>
<linearGradient id="paint44_linear_298_571" x1="115.064" y1="276.559" x2="21.1502" y2="73.8554" gradientUnits="userSpaceOnUse">
<stop stop-color="white"/>
<stop offset="1" stop-color="white"/>
</linearGradient>
<linearGradient id="paint45_linear_298_571" x1="115.064" y1="276.559" x2="21.1502" y2="73.8554" gradientUnits="userSpaceOnUse">
<stop stop-color="white"/>
<stop offset="1" stop-color="white"/>
</linearGradient>
<linearGradient id="paint46_linear_298_571" x1="145.181" y1="276.559" x2="51.2679" y2="73.8554" gradientUnits="userSpaceOnUse">
<stop stop-color="white"/>
<stop offset="1" stop-color="white"/>
</linearGradient>
<linearGradient id="paint47_linear_298_571" x1="145.181" y1="276.559" x2="51.2679" y2="73.8554" gradientUnits="userSpaceOnUse">
<stop stop-color="white"/>
<stop offset="1" stop-color="white"/>
</linearGradient>
<linearGradient id="paint48_linear_298_571" x1="175.299" y1="276.559" x2="81.3855" y2="73.8554" gradientUnits="userSpaceOnUse">
<stop stop-color="white"/>
<stop offset="1" stop-color="white"/>
</linearGradient>
<linearGradient id="paint49_linear_298_571" x1="175.299" y1="276.559" x2="81.3855" y2="73.8554" gradientUnits="userSpaceOnUse">
<stop stop-color="white"/>
<stop offset="1" stop-color="white"/>
</linearGradient>
</defs>
</svg>
